<?xml version="1.0" encoding="utf-8"?>
<!-- Generator: Adobe Illustrator 16.0.0, SVG Export Plug-In . SVG Version: 6.00 Build 0)  -->
<!DOCTYPE svg PUBLIC "-//W3C//DTD SVG 1.1//EN" "http://www.w3.org/Graphics/SVG/1.1/DTD/svg11.dtd">
<svg version="1.1"
	 id="svg3765" xmlns:dc="http://purl.org/dc/elements/1.1/" xmlns:cc="http://creativecommons.org/ns#" xmlns:svg="http://www.w3.org/2000/svg" xmlns:inkscape="http://www.inkscape.org/namespaces/inkscape" xmlns:rdf="http://www.w3.org/1999/02/22-rdf-syntax-ns#" xmlns:sodipodi="http://sodipodi.sourceforge.net/DTD/sodipodi-0.dtd" sodipodi:docname="background.svg" inkscape:version="0.48.4 r9939"
	 xmlns="http://www.w3.org/2000/svg" xmlns:xlink="http://www.w3.org/1999/xlink" x="0px" y="0px" width="2120px" height="765px"
	 viewBox="0 0 2120 765" enable-background="new 0 0 2120 765" xml:space="preserve">
<sodipodi:namedview  id="base" inkscape:cx="1620.7402" pagecolor="#ffffff" inkscape:zoom="0.49497475" showgrid="false" inkscape:cy="353.13111" borderopacity="1.0" bordercolor="#666666" inkscape:window-x="-8" inkscape:window-height="705" inkscape:current-layer="layer3" inkscape:pageshadow="2" inkscape:document-units="px" inkscape:window-width="1366" inkscape:window-y="-8" inkscape:pageopacity="0.0" inkscape:window-maximized="1">
	</sodipodi:namedview>
<g id="layer1" transform="translate(0,-287.36217)" inkscape:label="Background" inkscape:groupmode="layer" sodipodi:insensitive="true" display="none">
	<rect id="rect4282" x="2.021" y="282.626" display="inline" width="2563.768" height="771.757"/>
</g>
<g id="layer3" inkscape:label="Layer" inkscape:groupmode="layer">
	<path id="megaphone" inkscape:connector-curvature="0" fill="#FFFFFF" fill-opacity="0.5474" d="M482.199,433.278
		c-5.207-1.493-10.323,0.91-14.843,5.587l-0.045-0.046c-6.661,7.129-14.563,10.718-21.52,8.723l-1.682-0.482l-11.178-3.205
		l-10.541-3.022c-5.688-1.631-11.743,2.663-13.781,9.772c-2.04,7.114,0.82,13.959,6.509,15.591c2.794,0.813,4.408,3.724,3.605,6.523
		l-6.545,22.826c-0.804,2.803,0.818,5.725,3.618,6.527l10.146,2.909c2.8,0.803,5.723-0.815,6.527-3.618l0.727-2.536
		c0.728-2.536-1.483-4.397-1.082-5.8l5.092-17.754c0.017-0.059,0.068-0.088,0.09-0.145c0.13-0.355,0.324-0.662,0.572-0.92
		c0.069-0.071,0.137-0.123,0.213-0.181c0.29-0.243,0.617-0.419,0.984-0.522c0.019-0.005,0.027-0.02,0.046-0.024
		c0.011,0.003,0.021-0.005,0.03-0.001c0.236-0.057,0.486-0.013,0.733-0.01c6.206,2.516,10.521,9.344,12.266,18.266l0.072-0.012
		c1.362,6.344,4.421,11.08,9.622,12.571c11.657,3.343,22.877-12.771,27.936-30.417c5.061-17.645,4.085-37.256-7.571-40.599V433.278z
		 M459.336,465.149c0.754-2.63,1.638-5.127,2.598-7.489l7.192,2.063c2.801,0.803,4.096,4.863,2.892,9.063
		c-1.206,4.205-4.454,6.957-7.255,6.154l-7.192-2.063C458.008,470.365,458.58,467.785,459.336,465.149z M413.683,452.06
		c1.205-4.2,4.455-6.958,7.255-6.154l10.54,3.022l2.141,0.613l5.108,1.465c-2.103,1.398-3.871,3.795-4.753,6.871
		c-0.884,3.082-0.654,6.052,0.39,8.347l-5.108-1.465l-12.681-3.637C413.773,460.319,412.477,456.265,413.683,452.06L413.683,452.06z
		 M427.396,499.908l-10.145-2.909l6.545-22.826c0.53-1.849,0.53-3.718,0.093-5.463l1.771,0.508l-0.009,0.03l7.629,2.188
		c-0.498,0.711-0.895,1.503-1.147,2.383l-5.091,17.754c-0.7,2.442,0.198,4.46,0.734,5.662c0.073,0.166,0.166,0.341,0.237,0.523
		L427.396,499.908L427.396,499.908z M439.965,467.862l-0.573-0.164l0.009-0.03c-2.8-0.803-4.097-4.858-2.891-9.063
		c1.204-4.2,4.454-6.957,7.254-6.154l0.573,0.164c4.783,1.372,9.803,0.774,14.672-1.332c-1.896,3.876-3.507,8.094-4.745,12.413
		c-1.243,4.335-2.117,8.78-2.558,13.075C448.69,472.401,444.748,469.234,439.965,467.862L439.965,467.862z M463.29,499.222
		c-5.118-1.468-7.423-10.009-6.426-21.057l6.444,1.848c5.687,1.631,11.741-2.657,13.781-9.771c2.038-7.109-0.822-13.96-6.509-15.591
		l-6.444-1.848c5.007-9.893,11.489-15.92,16.607-14.452c7.006,2.009,8.774,17.264,3.954,34.072
		C479.879,489.23,470.295,501.23,463.29,499.222L463.29,499.222z"/>
	<path id="music" inkscape:connector-curvature="0" fill="#FFFFFF" fill-opacity="0.5474" d="M577.894,196.57
		c-0.595-0.265-1.258-0.31-1.875-0.133c-0.151,0.044-0.303,0.102-0.447,0.173l-21.323,10.403c-1.199,0.584-1.805,1.944-1.437,3.227
		l0.758,2.642l0.379,1.321l5.367,18.719c-1.62-0.588-3.523-0.663-5.455-0.109c-1.123,0.322-2.192,0.831-3.184,1.508
		c-2.268,1.555-3.797,3.808-4.196,6.184c-0.309,1.837,0.097,3.622,1.136,5.029c1.777,2.404,5.132,3.323,8.547,2.344
		c1.123-0.322,2.193-0.828,3.182-1.507c2.268-1.552,3.797-3.805,4.197-6.178c0.171-1.024,0.102-2.025-0.159-2.962l0.023-0.007
		l-6.061-21.136c0.152-0.043,0.303-0.101,0.449-0.17l20.888-10.191l4.598,16.034c-1.621-0.587-3.523-0.662-5.456-0.108
		c-1.123,0.322-2.194,0.831-3.184,1.507c-2.268,1.555-3.797,3.808-4.194,6.184c-0.308,1.836,0.096,3.622,1.135,5.03
		c1.779,2.403,5.131,3.324,8.547,2.344c1.123-0.322,2.194-0.828,3.184-1.508c2.266-1.552,3.795-3.804,4.195-6.178
		c0.172-1.024,0.102-2.025-0.157-2.963l0.023-0.007l-6.818-23.778l-0.379-1.321l-0.757-2.642
		C579.195,197.542,578.636,196.899,577.894,196.57L577.894,196.57z M557.789,244.107c-2.862,1.963-6.431,1.87-7.963-0.204
		c-1.536-2.076-0.46-5.349,2.401-7.312c2.862-1.963,6.43-1.872,7.963,0.204C561.727,238.869,560.651,242.144,557.789,244.107
		L557.789,244.107z M581.705,232.96c-2.864,1.964-6.433,1.87-7.965-0.204c-1.536-2.076-0.459-5.35,2.4-7.312
		c2.865-1.964,6.433-1.873,7.966,0.203C585.644,227.723,584.569,230.997,581.705,232.96z M577.858,203.058l-21.322,10.403
		l-0.379-1.321l-0.758-2.642l21.323-10.403l0.757,2.642L577.858,203.058z"/>
	<g id="iphone" transform="matrix(4.2606532,-1.2217226,1.2217226,4.2606532,1503.3701,440.60553)">
		<path id="path4365" inkscape:connector-curvature="0" fill="#FFFFFF" fill-opacity="0.5474" d="M24,0L8,0C6.342,0,5,1.343,5,3v26
			c0,1.658,1.343,3,3,3l16,0c1.656,0,3-1.344,3-3V3C27,1.342,25.656,0,24,0z M25,29c0,0.551-0.449,1-1,1L8,30c-0.552,0-1-0.447-1-1
			l0-2.004l18,0L25,29z M25,25.996H7V6l18,0V25.996z M25,5L7,5V3c0-0.552,0.448-1,1-1l16,0c0.551,0,1,0.448,1,1L25,5z"/>
		<path id="path4367" inkscape:connector-curvature="0" fill="#FFFFFF" fill-opacity="0.5474" d="M18,3.5C18,3.776,17.775,4,17.5,4
			l-3,0C14.223,4,14,3.776,14,3.5l0,0C14,3.223,14.223,3,14.5,3l3,0C17.775,3,18,3.223,18,3.5L18,3.5z"/>
		<path id="path4369" inkscape:connector-curvature="0" fill="#FFFFFF" fill-opacity="0.5474" d="M17,28.496
			c0,0.275-0.225,0.5-0.5,0.5l-1,0c-0.276,0-0.5-0.225-0.5-0.5l0,0c0-0.277,0.224-0.5,0.5-0.5l1,0
			C16.775,27.996,17,28.219,17,28.496L17,28.496z"/>
	</g>
	<path id="world" inkscape:connector-curvature="0" fill="#FFFFFF" fill-opacity="0.5474" d="M1620.284,258.566
		c-27.53,0-49.845,22.314-49.845,49.845c0,27.53,22.314,49.845,49.845,49.845c27.531,0,49.846-22.314,49.846-49.845
		C1670.13,280.88,1647.815,258.566,1620.284,258.566z M1663.618,306.803h-19.282c-0.177-7.123-1.444-13.927-3.692-20.156
		c4.342-1.811,8.355-4.219,12.015-7.065C1659.164,286.884,1663.231,296.368,1663.618,306.803z M1618.507,351.734
		c-5.346-4.45-9.828-10.229-13.108-16.94c4.21-1.315,8.67-2.036,13.278-2.184v19.131
		C1618.618,351.741,1618.563,351.738,1618.507,351.734L1618.507,351.734z M1622.057,265.087c6.065,5.049,11.015,11.812,14.362,19.7
		c-4.586,1.566-9.458,2.476-14.529,2.637v-22.347C1621.95,265.081,1622.003,265.085,1622.057,265.087L1622.057,265.087z
		 M1627.414,265.634c8.876,1.476,16.838,5.621,23.038,11.622c-3.367,2.582-7.046,4.769-11.023,6.425
		C1636.502,276.745,1632.395,270.612,1627.414,265.634z M1618.677,265.078v22.347c-5.071-0.164-9.947-1.071-14.529-2.637
		c3.348-7.888,8.297-14.651,14.361-19.7C1618.568,265.084,1618.62,265.081,1618.677,265.078L1618.677,265.078z M1601.138,283.685
		c-3.972-1.656-7.654-3.843-11.021-6.425c6.196-6,14.162-10.146,23.038-11.622C1608.171,270.612,1604.067,276.745,1601.138,283.685z
		 M1602.934,287.752c4.959,1.721,10.243,2.724,15.742,2.891v16.159h-19.228C1599.623,300.069,1600.815,293.634,1602.934,287.752z
		 M1618.677,310.019v19.376c-5.072,0.154-9.976,0.983-14.597,2.473c-2.785-6.631-4.429-14.018-4.631-21.849H1618.677z
		 M1613.155,351.188c-7.953-1.321-15.176-4.785-21.048-9.814c3.168-2.196,6.593-4.055,10.252-5.467
		C1605.164,341.721,1608.833,346.882,1613.155,351.188z M1621.892,351.744v-19.131c4.604,0.147,9.068,0.868,13.278,2.184
		c-3.283,6.711-7.764,12.49-13.108,16.94C1622.008,351.737,1621.95,351.74,1621.892,351.744L1621.892,351.744z M1638.21,335.906
		c3.656,1.412,7.078,3.273,10.252,5.467c-5.873,5.026-13.096,8.493-21.048,9.814C1631.736,346.882,1635.402,341.721,1638.21,335.906
		L1638.21,335.906z M1636.489,331.867c-4.625-1.489-9.528-2.318-14.597-2.473v-19.376h19.228
		C1640.917,317.85,1639.27,325.236,1636.489,331.867z M1621.892,306.803v-16.159c5.496-0.167,10.779-1.167,15.741-2.888
		c2.116,5.882,3.31,12.316,3.486,19.051h-19.228V306.803z M1587.914,279.581c3.659,2.846,7.673,5.255,12.011,7.065
		c-2.248,6.229-3.515,13.033-3.691,20.156h-19.282C1577.337,296.368,1581.405,286.884,1587.914,279.581z M1576.951,310.019h19.282
		c0.199,8.217,1.916,15.977,4.834,22.952c-4.074,1.588-7.873,3.704-11.378,6.209C1582.139,331.665,1577.373,321.39,1576.951,310.019
		L1576.951,310.019z M1650.88,339.177c-3.506-2.502-7.303-4.621-11.381-6.21c2.92-6.975,4.634-14.734,4.837-22.951h19.282
		C1663.196,321.39,1658.427,331.665,1650.88,339.177z"/>
	<g id="photo_1_" transform="matrix(0.9612617,-0.27563736,0.27563736,0.9612617,1709.5908,426.74058)">
		<path id="path4392" inkscape:connector-curvature="0" fill="#FFFFFF" fill-opacity="0.5474" d="M27,0L5,0C2.791,0,1,1.791,1,3.999
			l0.001,24C1,30.209,2.791,32,5,32l22,0c2.209,0.001,4-1.791,4-4l0-24C31,1.791,29.209,0,27,0z M29,28c0,1.102-0.899,2-2.001,2
			L5,30c-1.102,0-2-0.898-2-2L3,4c0-1.103,0.896-2,2-2l22.001,0C28.102,2,29,2.897,29,4L29,28z"/>
		<path id="path4394" inkscape:connector-curvature="0" fill="#FFFFFF" fill-opacity="0.5474" d="M26,4L6,4C5.447,4,5,4.447,5,5
			l0,18c0,0.553,0.447,1,1,1l20,0c0.553,0,1-0.447,1-1l0-18C27,4.447,26.553,4,26,4z M26,5L26,18.869l-3.25-3.53
			C22.559,15.123,22.287,15,22,15c-0.287,0-0.561,0.123-0.75,0.339l-2.604,2.95l-7.896-8.95C10.56,9.123,10.287,9,10,9
			C9.713,9,9.44,9.123,9.25,9.339L6,13.087l0-8.088L26,5z M6,14.6l4-4.6l8.066,9.143l0.58,0.658L21.407,23L6,23L6,14.6z
			 M22.74,23.001l-3.428-3.956L22,16L26,20.379L26,22.999L22.74,23.001z"/>
		<path id="path4396" inkscape:connector-curvature="0" fill="#FFFFFF" fill-opacity="0.5474" d="M20,13c1.656-0.001,3-1.343,3-3
			c0-1.657-1.344-3-3-3C18.342,7,17,8.343,17,10S18.342,13,20,13z M20,8c1.102,0,1.999,0.896,2,2c0,1.103-0.899,2-2,2
			c-1.104,0-2-0.897-2.001-2C18,8.897,18.896,8,20,8z"/>
	</g>
	<path id="shop_1_" inkscape:connector-curvature="0" fill="#FFFFFF" fill-opacity="0.5474" d="M1844.546,202.293l-9.25-11.823
		c-0.361-0.464-0.789-0.866-1.233-1.25v-14.132c0-3.265-2.763-5.915-6.167-5.915h-61.668c-3.408,0-6.168,2.65-6.168,5.915v14.135
		c-0.443,0.381-0.872,0.781-1.232,1.242l-9.248,11.826c-1.195,1.525-1.854,3.415-1.854,5.326v2.957c0,4.891,4.15,8.872,9.251,8.872
		l0,0v38.443c0,3.265,2.763,5.914,6.167,5.914h67.836c3.403,0,6.166-2.649,6.166-5.914v-38.443l0,0c5.101,0,9.251-3.98,9.251-8.872
		v-2.957C1846.396,205.705,1845.739,203.815,1844.546,202.293L1844.546,202.293z M1827.896,175.087v11.829h-61.668l0,0v-11.829
		H1827.896z M1779.155,213.53h-12.916l12.334-20.7h6.75L1779.155,213.53z M1788.532,192.83h6.987v20.7h-13.153L1788.532,192.83
		L1788.532,192.83z M1798.603,192.83h6.987l6.167,20.7h-13.154V192.83z M1808.794,192.83h6.75l12.333,20.7h-12.916L1808.794,192.83z
		 M1753.894,210.573v-2.957c0-0.642,0.215-1.263,0.616-1.774l9.251-11.829c0.582-0.745,1.495-1.183,2.467-1.183h8.793l-12.334,20.7
		h-5.71C1755.274,213.53,1753.894,212.208,1753.894,210.573z M1809.396,257.888h-23.126v-29.572h23.126V257.888z M1830.979,257.888
		h-18.501v-29.572c0-1.635-1.384-2.957-3.083-2.957h-23.126c-1.702,0-3.083,1.322-3.083,2.957v29.572h-20.043v-38.443h67.836
		V257.888z M1840.229,210.573c0,1.635-1.379,2.957-3.084,2.957h-5.717l-12.333-20.7h8.8l0,0c0.969,0,1.884,0.438,2.464,1.183
		l9.251,11.829c0.403,0.512,0.619,1.133,0.619,1.774V210.573z"/>
	<g id="vallet_1_" transform="matrix(6.0805354,-1.7435655,1.7435655,6.0805354,1886.6368,332.34321)">
		
			<circle id="circle4419" sodipodi:cx="18" sodipodi:rx="2" sodipodi:ry="2" sodipodi:cy="20" fill="#FFFFFF" fill-opacity="0.5474" cx="18" cy="20" r="2">
		</circle>
		<path id="path4421" inkscape:connector-curvature="0" fill="#FFFFFF" fill-opacity="0.5474" d="M29.001,13C29,13,29,13,29.001,13
			L29,7l0-0.5L29,4c0-1.657-1.344-3-3-3l-4,0L5.5,1C2.467,1,0,3.468,0,6.5l0,20C0,29.532,2.467,32,5.5,32l18,0
			c3.032,0,5.5-2.468,5.5-5.5l0-1.5c0,0,0,0,0.001,0C32.999,21.999,32.999,16.001,29.001,13z M5.5,3L22,3l4,0c0.551,0,1,0.448,1,1
			l0,2.5L27,7l0,3.184C26.686,10.072,26.352,10,26,10l-0.001,0l0-1V7l0-2c0-0.553-0.448-1-1-1l-21,0c-0.552,0-1,0.447-1,1l0,2
			l0,1.943C2.382,8.312,2,7.452,2,6.5C2,4.567,3.566,3,5.5,3z M24.999,6l-21,0l0-1l21,0L24.999,6z M24.999,7l0,1l-21,0l0-1L24.999,7
			z M24.999,9l0,1L22,10L5.5,10C4.96,10,4.456,9.868,4,9.65L4,9L24.999,9z M27,26.5c0,1.933-1.567,3.5-3.5,3.5l-18,0
			C3.566,30,2,28.433,2,26.5l0-15.761C2.951,11.526,4.171,12,5.5,12L22,12l4,0c0.551,0,1,0.448,1,1l0,2l-9,0c-2.762,0-5,2.238-5,5
			c0,2.762,2.239,5,5,5l9,0L27,26.5z M28.277,23L18,23c-1.654,0-3-1.346-3-3c0-1.654,1.346-3,3-3l9,0
			c0.617-0.008,1.229-0.307,1.602-0.804c0.104-0.14,0.185-0.297,0.25-0.461c0.009-0.022,0.025-0.039,0.033-0.062
			C29.604,16.616,30,17.772,30,19C30,20.538,29.379,21.965,28.277,23z"/>
	</g>
	<g id="g4447" transform="matrix(3.3864418,-0.97104658,0.97104658,3.3864418,1787.3225,491.82341)">
		<g id="Layer_1">
			<g id="fire_1_">
				<path id="path4436" inkscape:connector-curvature="0" fill="#FFFFFF" fill-opacity="0.5474" d="M22,9
					c-0.062,2.675-2.07,4.934-2.07,4.934C19.93,8.958,16,5,16,5s-0.053,2.962-2.043,5.948C11.967,3.981,5.995,0,5.995,0
					C8.981,10.948,5,14.93,5,22.892C5,27.563,8.954,32,15,32c8.957,0,10.689-3.288,11.615-6.993C27.891,19.906,25.98,13.976,22,9z
					 M24.676,24.521C24.033,27.09,23.307,30,15,30c-5.008,0-8-3.614-8-7.108c0-2.676,0.488-4.873,1.004-7.199
					c0.656-2.949,1.328-5.968,1.037-9.961c3.084,4.269,4.182,9.925,4.182,9.925s2.871-4.031,3.643-5.903C17.457,10.957,18,15,18,19
					c0,0,2.656-2.188,4.648-5.478C24.746,17.284,25.502,21.217,24.676,24.521z"/>
				<path id="path4438" inkscape:connector-curvature="0" fill="#FFFFFF" fill-opacity="0.5474" d="M22.432,16.795l-0.85,0.985
					c-1.053,1.228-2.049,2.392-4.708,3.73c-0.381-1.142-0.727-2.399-0.727-4.323l0-1.709l-1.518,2.378
					c-0.512,0.811-0.936,1.483-1.568,2.376c-0.959-2.162-1.637-3.761-2.152-5.212l-0.479-1.35l-0.52,1.51
					c-0.66,1.921-1.285,3.735-1.285,8.444c0,0.276,0.223,0.5,0.5,0.5c0.275,0,0.5-0.224,0.5-0.5c0-3.609,0.359-5.396,0.84-6.941
					c0.52,1.322,1.176,2.825,2.037,4.75l0.352,0.784l0.508-0.692c0.83-1.13,1.324-1.89,1.865-2.743
					c0.158,1.479,0.523,2.54,0.885,3.59l0.182,0.528l0.506-0.239c2.703-1.284,3.968-2.453,4.972-3.575
					c0.156,1.864-0.09,3.904-0.674,5.353c-0.104,0.256,0.021,0.547,0.277,0.65c0.061,0.024,0.125,0.036,0.188,0.036
					c0.197,0,0.385-0.118,0.463-0.313c0.775-1.924,1.008-4.664,0.592-6.982L22.432,16.795z"/>
			</g>
		</g>
		<g id="Layer_2">
		</g>
	</g>
	<g id="settings" transform="matrix(2.7677966,0,0,2.7677966,476.95443,306.54815)">
		<path id="path4456" inkscape:connector-curvature="0" fill="#FFFFFF" fill-opacity="0.5474" d="M30.391,12.68l-3.064-0.614
			c-0.154-0.443-0.336-0.873-0.537-1.289l1.736-2.604c0.529-0.793,0.424-1.85-0.25-2.523l-1.924-1.924
			c-0.387-0.387-0.898-0.586-1.416-0.586c-0.383,0-0.77,0.11-1.107,0.336l-2.604,1.735c-0.418-0.202-0.848-0.382-1.291-0.536
			L19.32,1.61c-0.186-0.936-1.008-1.608-1.961-1.608h-2.72c-0.953,0-1.774,0.673-1.961,1.608l-0.614,3.065
			c-0.443,0.154-0.873,0.335-1.289,0.536L8.172,3.476C7.833,3.25,7.447,3.14,7.063,3.14c-0.517,0-1.028,0.199-1.415,0.586
			L3.725,5.65c-0.674,0.674-0.779,1.73-0.25,2.523l1.735,2.604c-0.202,0.417-0.382,0.847-0.536,1.29L1.608,12.68
			C0.673,12.867,0,13.688,0,14.641v2.72c0,0.953,0.673,1.775,1.608,1.961l3.065,0.615c0.154,0.443,0.335,0.873,0.536,1.289
			L3.475,23.83c-0.529,0.793-0.424,1.85,0.25,2.523l1.924,1.924c0.387,0.387,0.898,0.586,1.415,0.586
			c0.384,0,0.771-0.111,1.108-0.336l2.604-1.736c0.417,0.203,0.847,0.383,1.29,0.537l0.613,3.064
			c0.187,0.936,1.008,1.609,1.961,1.609h2.72c0.953,0,1.775-0.674,1.961-1.609l0.615-3.064c0.443-0.154,0.873-0.336,1.289-0.537
			l2.604,1.736c0.338,0.225,0.725,0.336,1.107,0.336c0.518,0,1.029-0.199,1.416-0.586l1.924-1.924
			c0.674-0.674,0.779-1.73,0.25-2.523l-1.736-2.604c0.203-0.418,0.383-0.848,0.537-1.291l3.064-0.613
			C31.326,19.137,32,18.314,32,17.361v-2.72C32,13.688,31.326,12.867,30.391,12.68z M26.934,17.975
			c-0.695,0.139-1.264,0.635-1.496,1.305c-0.129,0.369-0.279,0.727-0.447,1.074c-0.311,0.639-0.258,1.393,0.135,1.982l1.736,2.604
			l-1.924,1.924l-2.604-1.736c-0.334-0.223-0.721-0.336-1.109-0.336c-0.297,0-0.596,0.066-0.871,0.199
			c-0.348,0.168-0.705,0.32-1.076,0.449c-0.668,0.232-1.164,0.801-1.303,1.496l-0.615,3.066h-2.72l-0.613-3.066
			c-0.139-0.695-0.635-1.264-1.304-1.496c-0.369-0.129-0.728-0.279-1.075-0.447c-0.276-0.135-0.574-0.201-0.872-0.201
			c-0.389,0-0.775,0.113-1.109,0.336l-2.604,1.736L5.139,24.94l1.735-2.604c0.393-0.59,0.444-1.344,0.137-1.98
			c-0.168-0.348-0.319-0.705-0.448-1.076c-0.232-0.668-0.802-1.164-1.496-1.303l-3.065-0.615L2,14.641l3.066-0.613
			c0.694-0.139,1.264-0.635,1.496-1.304c0.129-0.369,0.278-0.728,0.447-1.075c0.31-0.638,0.258-1.392-0.136-1.981L5.139,7.064
			L7.062,5.14l2.604,1.735C10,7.098,10.387,7.211,10.775,7.211c0.297,0,0.595-0.066,0.871-0.199
			c0.347-0.168,0.705-0.319,1.075-0.448c0.669-0.232,1.165-0.802,1.304-1.496l0.614-3.065l2.72-0.001l0.613,3.066
			c0.139,0.694,0.635,1.264,1.305,1.496c0.369,0.129,0.727,0.278,1.074,0.447c0.277,0.134,0.574,0.2,0.873,0.2
			c0.389,0,0.775-0.113,1.109-0.336l2.604-1.735l1.924,1.924l-1.736,2.604c-0.393,0.59-0.443,1.343-0.137,1.98
			c0.168,0.347,0.32,0.705,0.449,1.075c0.232,0.669,0.801,1.165,1.496,1.304l3.064,0.614L30,17.361L26.934,17.975z"/>
		<path id="path4458" inkscape:connector-curvature="0" fill="#FFFFFF" fill-opacity="0.5474" d="M16,9.001c-3.865,0-7,3.135-7,7
			c0,3.866,3.135,7,7,7c3.865,0,7-3.135,7-7C23,12.136,19.865,9.001,16,9.001z M16,22.127c-3.382,0-6.125-2.744-6.125-6.125
			c0-3.382,2.743-6.125,6.125-6.125c3.381,0,6.125,2.743,6.125,6.125C22.125,19.383,19.381,22.127,16,22.127z"/>
		<path id="path4460" inkscape:connector-curvature="0" fill="#FFFFFF" fill-opacity="0.5474" d="M16,12.001c-2.21,0-4,1.79-4,4
			c0,2.209,1.79,4,4,4c2.209,0,4-1.791,4-4S18.209,12.001,16,12.001L16,12.001z M16,19.002c-1.656,0-3-1.344-3-3
			c0-1.656,1.344-3,3-3c1.656,0,3,1.344,3,3C19,17.658,17.656,19.002,16,19.002z"/>
	</g>
	<g id="tag" transform="matrix(2.2872127,0.6558477,-0.6558477,2.2872127,355.45564,276.06826)">
		<path id="path4474" inkscape:connector-curvature="0" fill="#FFFFFF" fill-opacity="0.5474" d="M31.391,13.883l-5-8
			c-0.73-1.169-2.012-1.88-3.391-1.88l-19,0c-2.209,0-4,1.791-4,4l0,16c0,2.209,1.791,4,4,4l19,0c1.379,0,2.66-0.711,3.391-1.881
			l5-8C32.203,16.827,32.203,15.18,31.391,13.883z M29.695,17.062l-5,8.002c-0.367,0.588-1.002,0.939-1.695,0.939l-19,0
			c-1.103,0-2-0.898-2-2l0-16c0-1.103,0.897-2,2-2l19,0c0.693,0,1.328,0.352,1.695,0.939l5,8
			C30.098,15.587,30.098,16.419,29.695,17.062z"/>
		<path id="path4476" inkscape:connector-curvature="0" fill="#FFFFFF" fill-opacity="0.5474" d="M23,13.003c-1.658,0-3,1.343-3,3
			c0,1.657,1.342,3,3,3c1.656,0,3-1.344,3-3C26,14.346,24.656,13.003,23,13.003z M23,18.004c-1.105,0-2-0.896-2-2
			c0-1.104,0.895-2,2-2c1.104,0,2,0.896,2,2C25,17.107,24.104,18.004,23,18.004z"/>
	</g>
	<path id="pen" inkscape:connector-curvature="0" fill="#FFFFFF" fill-opacity="0.5474" d="M471.188,186.878
		c-1.81-2.398-4.412-3.987-7.145-4.371c-2.305-0.324-4.546,0.232-6.313,1.562l-7.11,5.399c-0.021,0.016-0.045,0.024-0.066,0.041
		c-0.012,0.009-0.021,0.022-0.032,0.029l0.004,0.003l-15.089,11.462c-0.694,0.52-1.242,1.211-1.604,2l-4.535,10.464
		c-0.007,0.029-0.323,0.856-0.384,1.292c-0.348,2.472,1.378,4.761,3.854,5.108c0.493,0.069,1.479-0.032,1.515-0.032l11.249-1.328
		c0.858-0.128,1.67-0.469,2.365-0.994l22.296-16.939C474.245,197.519,474.683,191.505,471.188,186.878L471.188,186.878z
		 M450.251,211.618c0.058-1.169-0.109-2.348-0.447-3.491l13.799-10.396c0.411,2.44-0.313,4.831-2.162,6.226
		c-0.012,0.009-0.025,0.013-0.035,0.022l0.016,0.019l-11.29,8.578C450.176,212.257,450.235,211.947,450.251,211.618z
		 M449.325,206.87c-0.367-0.852-0.803-1.686-1.381-2.45c-0.672-0.892-1.482-1.631-2.347-2.277l13.911-10.483
		c0.897,0.559,1.729,1.293,2.426,2.217c0.596,0.787,1.021,1.635,1.321,2.497L449.325,206.87z M444.478,201.369
		c-1.118-0.644-2.321-1.091-3.563-1.282l11.253-8.547c1.716-1.26,3.972-1.375,6.061-0.534L444.478,201.369z M433.999,217.265
		c-0.145,0.013-0.594,0.062-0.891,0.041c-1.05-0.161-1.783-1.135-1.636-2.187c0.046-0.213,0.184-0.57,0.231-0.701l2.034-4.691
		c1.468,0.166,2.962,0.957,4.024,2.37c1.08,1.431,1.446,3.118,1.174,4.59L433.999,217.265z M440.244,216.53
		c0.211-1.722-0.237-3.606-1.449-5.212c-1.146-1.522-2.782-2.538-4.514-2.851l1.924-4.437c0.135-0.294,0.36-0.572,0.623-0.805
		c2.825-1.477,6.696-0.38,9.053,2.75c2.493,3.307,2.344,7.619-0.246,9.84c-0.159,0.058-0.319,0.11-0.487,0.135L440.244,216.53z
		 M468.635,198.513l-2.46,1.869c0.041-0.289,0.114-0.562,0.129-0.861c0.123-2.508-0.695-5.064-2.307-7.2
		c-1.791-2.378-4.387-3.963-7.123-4.356l2.42-1.839c1.209-0.909,2.771-1.287,4.391-1.06c2.059,0.289,4.043,1.518,5.441,3.368
		c1.313,1.739,1.956,3.76,1.817,5.694C470.812,195.932,469.992,197.489,468.635,198.513z"/>
	<g id="search_1_" transform="matrix(2.0732536,0,0,2.0732536,1487.1076,179.2631)">
		<path id="path4498" inkscape:connector-curvature="0" fill="#FFFFFF" fill-opacity="0.5474" d="M20,0.005c-6.627,0-12,5.373-12,12
			c0,2.026,0.507,3.933,1.395,5.608l-8.344,8.342l0.007,0.006C0.406,26.602,0,27.49,0,28.477c0,1.949,1.58,3.529,3.529,3.529
			c0.985,0,1.874-0.406,2.515-1.059l-0.002-0.002l8.341-8.34c1.676,0.891,3.586,1.4,5.617,1.4c6.627,0,12-5.373,12-12
			C32,5.378,26.627,0.005,20,0.005z M4.795,29.697c-0.322,0.334-0.768,0.543-1.266,0.543c-0.975,0-1.765-0.789-1.765-1.764
			c0-0.498,0.21-0.943,0.543-1.266l-0.009-0.008l8.066-8.066c0.705,0.951,1.545,1.791,2.494,2.498L4.795,29.697z M20,22.006
			c-5.522,0-10-4.479-10-10c0-5.522,4.478-10,10-10c5.521,0,10,4.478,10,10C30,17.527,25.521,22.006,20,22.006z"/>
		<path id="path4500" inkscape:connector-curvature="0" fill="#FFFFFF" fill-opacity="0.5474" d="M20,5.005c-3.867,0-7,3.134-7,7
			c0,0.276,0.224,0.5,0.5,0.5s0.5-0.224,0.5-0.5c0-3.313,2.686-6,6-6c0.275,0,0.5-0.224,0.5-0.5C20.5,5.229,20.275,5.005,20,5.005z"
			/>
	</g>
	<path id="usericon" inkscape:connector-curvature="0" fill="#FFFFFF" fill-opacity="0.5474" d="M1463.534,370.945
		c-0.334-0.159-6.403-3.023-14.921-3.65c2.493-4.267,3.714-9.707,4.058-13.263c0.479-4.928-1.277-14.189-6.672-19.357
		c-3.152-3.021-7.148-4.288-11.555-3.669c-4.406,0.62-7.898,2.94-10.095,6.711c-3.761,6.453-2.896,15.841-1.078,20.445
		c1.311,3.323,3.982,8.217,7.556,11.631c-8.014,2.951-13.059,7.377-13.335,7.622c-1.013,0.9-1.317,2.36-0.747,3.588
		c0.568,1.233,1.879,1.947,3.22,1.759l42.663-5.996c1.343-0.188,2.402-1.235,2.612-2.576
		C1465.451,372.851,1464.757,371.532,1463.534,370.945L1463.534,370.945z M1445.956,365.743l-0.408,0.701
		c-3.047,4.686-7.785,5.352-12.005,1.688l-0.587-0.562c-4.999-4.78-8.104-11.597-8.151-18.51
		c-0.086-6.636,2.693-13.971,10.067-15.007c7.375-1.036,12.07,5.249,13.816,11.652
		C1450.546,352.367,1449.446,359.766,1445.956,365.743L1445.956,365.743z M1419.536,379.715c0.191-0.17,4.877-4.281,12.354-7.031
		l3.67-1.351c1.476,0.697,3.036,1.042,4.666,0.813c1.633-0.229,3.035-0.99,4.262-2.067l3.9,0.286
		c7.881,0.58,13.496,3.205,13.813,3.354L1419.536,379.715z"/>
	<g id="vynil_1_" transform="matrix(1.7574128,0,0,1.7574128,1357.8039,213.61584)">
		<path id="path4522" inkscape:connector-curvature="0" fill="#FFFFFF" fill-opacity="0.5474" d="M21.951,1.15
			c-8.202-3.284-17.515,0.702-20.8,8.905c-3.286,8.204,0.702,17.518,8.905,20.802c8.203,3.285,17.516-0.702,20.801-8.905
			C34.143,13.748,30.154,4.436,21.951,1.15z M10.8,29.001C3.634,26.131,0.138,17.967,3.007,10.8
			c2.87-7.166,11.035-10.663,18.202-7.792c7.166,2.869,10.662,11.034,7.793,18.2C26.131,28.375,17.967,31.87,10.8,29.001z"/>
		<path id="path4524" inkscape:connector-curvature="0" fill="#FFFFFF" fill-opacity="0.5474" d="M16.749,14.147
			c-1.025-0.411-2.19,0.088-2.601,1.113c-0.411,1.025,0.088,2.189,1.112,2.6c1.025,0.411,2.191-0.088,2.601-1.112
			C18.271,15.723,17.773,14.559,16.749,14.147z M15.632,16.933c-0.512-0.206-0.761-0.788-0.557-1.301
			c0.206-0.512,0.789-0.761,1.301-0.557c0.511,0.205,0.76,0.788,0.556,1.301C16.727,16.888,16.144,17.137,15.632,16.933z"/>
		<path id="path4526" inkscape:connector-curvature="0" fill="#FFFFFF" fill-opacity="0.5474" d="M18.234,10.435
			c-3.076-1.232-6.568,0.264-7.8,3.339c-1.232,3.076,0.264,6.568,3.339,7.8c3.076,1.232,6.568-0.263,7.8-3.339
			C22.805,15.159,21.311,11.666,18.234,10.435z M14.518,19.717c-2.048-0.819-3.046-3.153-2.227-5.2
			c0.82-2.047,3.152-3.046,5.199-2.227c2.049,0.82,3.047,3.154,2.229,5.201C18.898,19.538,16.565,20.538,14.518,19.717z"/>
		<path id="path4528" inkscape:connector-curvature="0" fill="#FFFFFF" fill-opacity="0.5474" d="M23.432,18.978
			c0.102-0.256-0.023-0.547-0.279-0.649c-0.256-0.104-0.547,0.021-0.65,0.278v-0.001c-0.719,1.796-2.098,3.129-3.744,3.834
			c-0.252,0.108-0.371,0.402-0.262,0.655c0.109,0.255,0.402,0.372,0.656,0.264c0.01-0.004,0.014-0.012,0.021-0.015
			c1.873-0.81,3.439-2.327,4.256-4.366H23.432z"/>
		<path id="path4530" inkscape:connector-curvature="0" fill="#FFFFFF" fill-opacity="0.5474" d="M26.865,19.814
			c-0.256-0.103-0.547,0.022-0.65,0.278c-1.129,2.82-3.295,4.915-5.882,6.023c-0.252,0.108-0.371,0.402-0.262,0.656
			c0.109,0.255,0.402,0.371,0.656,0.263c0.012-0.006,0.021-0.017,0.033-0.022c2.809-1.213,5.16-3.49,6.385-6.548
			C27.246,20.208,27.121,19.917,26.865,19.814z"/>
		<path id="path4532" inkscape:connector-curvature="0" fill="#FFFFFF" fill-opacity="0.5474" d="M25.008,19.071
			c-0.256-0.103-0.547,0.021-0.65,0.278c-0.922,2.308-2.693,4.021-4.812,4.928h0.002c-0.254,0.109-0.373,0.403-0.264,0.657
			c0.109,0.254,0.402,0.371,0.656,0.263c0.01-0.005,0.016-0.014,0.027-0.02c2.34-1.011,4.299-2.907,5.32-5.456
			C25.389,19.465,25.264,19.174,25.008,19.071z"/>
		<path id="path4534" inkscape:connector-curvature="0" fill="#FFFFFF" fill-opacity="0.5474" d="M13.513,8.912
			c-0.109-0.255-0.403-0.371-0.657-0.262c-0.009,0.003-0.014,0.011-0.021,0.014c-1.873,0.81-3.44,2.328-4.256,4.366H8.578
			c-0.103,0.257,0.022,0.547,0.278,0.65c0.257,0.103,0.548-0.022,0.65-0.278h0.001c0.718-1.794,2.097-3.128,3.743-3.832
			C13.504,9.46,13.622,9.167,13.513,8.912z"/>
		<path id="path4536" inkscape:connector-curvature="0" fill="#FFFFFF" fill-opacity="0.5474" d="M11.938,5.235
			c-0.109-0.254-0.403-0.371-0.657-0.263c-0.012,0.005-0.021,0.016-0.031,0.021c-2.81,1.214-5.16,3.49-6.385,6.548
			c-0.104,0.258,0.021,0.549,0.278,0.651c0.256,0.103,0.547-0.021,0.65-0.278C6.923,9.095,9.088,7,11.676,5.892
			C11.929,5.782,12.047,5.489,11.938,5.235z"/>
		<path id="path4538" inkscape:connector-curvature="0" fill="#FFFFFF" fill-opacity="0.5474" d="M12.463,7.729
			c0.253-0.108,0.372-0.401,0.263-0.656c-0.109-0.253-0.403-0.371-0.657-0.262c-0.01,0.004-0.016,0.014-0.026,0.018
			c-2.341,1.012-4.3,2.91-5.32,5.458C6.619,12.544,6.745,12.834,7,12.938c0.256,0.102,0.547-0.021,0.65-0.278
			c0.923-2.308,2.695-4.022,4.812-4.928L12.463,7.729L12.463,7.729z"/>
	</g>
	<g id="location" transform="matrix(1.675205,0.7458493,-0.7458493,1.675205,608.52999,436.10764)">
		<path id="path4558" inkscape:connector-curvature="0" fill="#FFFFFF" fill-opacity="0.5474" d="M16.002,17.746
			c3.309,0,6-2.692,6-6c0-3.308-2.691-6-6-6c-3.309,0-6,2.691-6,6C10.002,15.055,12.693,17.746,16.002,17.746z M16.002,6.746
			c2.758,0,5,2.242,5,5c0,2.758-2.242,5-5,5c-2.758,0-5-2.242-5-5C11.002,8.988,13.244,6.746,16.002,6.746z"/>
		<path id="path4560" inkscape:connector-curvature="0" fill="#FFFFFF" fill-opacity="0.5474" d="M16,0C9.382,0,4,5.316,4,12.001
			c0,7,6.001,14.161,10.376,19.194C14.392,31.215,15.094,32,15.962,32c0.002,0,0.073,0,0.077,0c0.867,0,1.57-0.785,1.586-0.805
			c4.377-5.033,10.377-12.193,10.377-19.194C28.002,5.316,22.619,0,16,0z M16.117,29.883c-0.021,0.02-0.082,0.064-0.135,0.098
			c-0.01-0.027-0.084-0.086-0.129-0.133C12.188,25.631,6,18.514,6,12.001C6,6.487,10.487,2,16,2c5.516,0,10.002,4.487,10.002,10.002
			C26.002,18.514,19.814,25.631,16.117,29.883L16.117,29.883z"/>
	</g>
	<g id="sound" transform="translate(648.68038,336.85777)">
		<path id="path4573" inkscape:connector-curvature="0" fill="#FFFFFF" fill-opacity="0.5474" d="M26.999,14.002H27
			c0.002,0.274,0.225,0.496,0.5,0.496c0.274,0,0.5-0.223,0.5-0.499c0-0.003-0.002-0.005-0.002-0.008
			c-0.006-5.509-4.465-9.973-9.974-9.986C18.018,4.003,18.01,4,18,4c-0.277,0-0.5,0.225-0.5,0.5s0.223,0.499,0.498,0.5v0.004
			C22.961,5.002,26.999,9.041,26.999,14.002z"/>
		<path id="path4575" inkscape:connector-curvature="0" fill="#FFFFFF" fill-opacity="0.5474" d="M9.122,0.877
			C8.548,0.304,7.78,0,7,0C6.614,0,6.224,0.074,5.853,0.228C4.731,0.692,4,1.786,4,3L4,16.757l-3.12,3.121
			c-1.172,1.171-1.172,3.07,0,4.242l7,7C8.465,31.707,9.232,32,10,32c0.768,0,1.535-0.293,2.121-0.879L15.243,28h13.756
			c1.215,0,2.309-0.729,2.771-1.852c0.465-1.121,0.209-2.412-0.649-3.271L9.122,0.877z M13.829,26.585l-3.121,3.121
			C10.453,29.96,10.155,30,10,30s-0.452-0.039-0.707-0.293l-7-7C2.039,22.451,2,22.154,2,22c0-0.153,0.038-0.453,0.293-0.707
			l3.12-3.121c0.009-0.01,0.012-0.021,0.021-0.03l8.425,8.426C13.85,26.574,13.837,26.576,13.829,26.585z M15.243,26
			c-0.155,0-0.3,0.056-0.447,0.088l-8.885-8.885C5.944,17.055,6,16.911,6,16.757L6,4.71L27.288,26H15.243z M29.922,25.383
			C29.768,25.758,29.405,26,28.999,26h-0.297L6,3.296V3c0-0.405,0.242-0.769,0.617-0.924C6.741,2.025,6.869,2,7,2
			c0.268,0,0.519,0.104,0.707,0.292l21.999,22.001C29.993,24.58,30.079,25.008,29.922,25.383z"/>
		<path id="path4577" inkscape:connector-curvature="0" fill="#FFFFFF" fill-opacity="0.5474" d="M17.999,2v0.004
			c6.617,0,12,5.384,12,12H30C30.002,14.554,30.45,15,31,15c0.553,0,1-0.446,1-1c0-0.003-0.002-0.005-0.002-0.008
			C31.993,6.274,25.743,0.019,18.025,0.004C18.018,0.003,18.01,0,18,0c-0.553,0-1,0.447-1,1C17,1.551,17.448,1.999,17.999,2z"/>
	</g>
	<g id="stack" transform="matrix(1.7576144,0,0,1.7576144,1820.4572,311.09886)">
		<path id="path4591" inkscape:connector-curvature="0" fill="#FFFFFF" fill-opacity="0.5474" d="M31.924,18.455L27.922,3.449
			C27.68,2.596,26.889,2,26,2H16H6C5.11,2,4.32,2.596,4.078,3.449L0.076,18.455C0.025,18.637,0,18.82,0,19v7c0,2.209,1.791,4,4,4h24
			c2.209,0,4-1.791,4-4v-7C32,18.82,31.975,18.637,31.924,18.455z M30,26c0,1.102-0.898,2-2,2H4c-1.103,0-2-0.898-2-2v-7
			L6.001,3.999h19.997L30,19V26z"/>
		<path id="path4593" inkscape:connector-curvature="0" fill="#FFFFFF" fill-opacity="0.5474" d="M23.742,6H8.258
			c-0.453,0-0.85,0.305-0.967,0.743l-3.445,12C3.767,19.044,3.83,19.364,4.02,19.61C4.21,19.856,4.502,20,4.812,20h2.906h1.141H9.38
			l1.447,2.895C11.167,23.572,11.859,24,12.617,24h6.766c0.758,0,1.449-0.428,1.789-1.105L22.619,20h0.521h1.141h2.906
			c0.311,0,0.604-0.145,0.793-0.391c0.189-0.246,0.252-0.566,0.174-0.867l-3.445-12C24.592,6.304,24.195,6,23.742,6z M24.281,18
			h-1.662c-0.762,0-1.447,0.422-1.788,1.105L19.383,22h-6.766l-1.447-2.895C10.828,18.422,10.143,18,9.381,18H7.719H5.334L8.258,7
			h15.484l2.924,11H24.281z"/>
	</g>
	<g id="food_1_" transform="matrix(1.4419417,0,0,1.4419417,1721.4622,322.71561)">
		<path id="path4606" inkscape:connector-curvature="0" fill="#FFFFFF" fill-opacity="0.5474" d="M29.5,21h-2.691
			c-0.045-0.239-0.1-0.473-0.16-0.706l4.799-2.399c0.494-0.247,0.693-0.848,0.447-1.342c-0.249-0.494-0.846-0.692-1.342-0.447
			l-4.578,2.288C24.229,14.626,20.42,12,16,12c-5.382,0-9.865,3.888-10.809,9H2.5C1.122,21,0,22.121,0,23.5
			c0,0.49,0.18,0.963,0.505,1.329L4,28.761V29.5C4,30.879,5.122,32,6.5,32h19c1.379,0,2.5-1.121,2.5-2.5v-0.739l3.494-3.932
			C31.82,24.463,32,23.99,32,23.5C32,22.121,30.879,21,29.5,21z M25.799,21h-0.562l0.498-0.25
			C25.754,20.834,25.781,20.915,25.799,21z M16,13c4.029,0,7.5,2.4,9.082,5.841l-0.891,0.446C22.775,16.171,19.645,14,16,14
			c-4.282,0-7.859,2.993-8.77,7H6.202C7.131,16.441,11.171,13,16,13z M20.576,21c-0.773-1.763-2.532-3-4.576-3
			c-2.045,0-3.802,1.237-4.576,3H10.35c0.826-2.326,3.044-4,5.65-4c2.465,0,4.588,1.496,5.508,3.627L20.764,21H20.576z M16,20
			c-0.883,0-1.67,0.391-2.22,1h-1.224c0.694-1.189,1.969-2,3.444-2c1.473,0,2.75,0.811,3.443,2h-1.225C17.67,20.391,16.883,20,16,20
			z M16,16c-3.165,0-5.842,2.112-6.705,4.999H8.263c0.892-3.444,4.017-6,7.737-6c3.246,0,6.043,1.948,7.295,4.734l-0.893,0.446
			C21.315,17.723,18.855,16,16,16z M26,28v1.5c0,0.276-0.225,0.5-0.5,0.5h-19C6.224,30,6,29.776,6,29.5V28l-4-4.5
			C2,23.224,2.224,23,2.5,23H5h1h1h1h1h1h1h1h1h6h1h1h1h1h1h1h1h1h2.5c0.275,0,0.5,0.224,0.5,0.5L26,28z"/>
		<path id="path4608" inkscape:connector-curvature="0" fill="#FFFFFF" fill-opacity="0.5474" d="M7.977,11.712
			c0.003,0.006,0.005,0.012,0.007,0.018c0,0,0.001,0,0.003,0C8.07,11.89,8.236,12,8.43,12c0.276,0,0.502-0.226,0.502-0.503
			c0-0.043-0.007-0.085-0.018-0.125c0.002-0.007,0.002-0.013,0-0.02C8.539,10.47,8.895,9.502,9.333,8.46
			c0.473-1.126,0.98-2.376,0.422-3.647C9.684,4.63,9.507,4.5,9.299,4.5c-0.272,0-0.49,0.22-0.49,0.49
			c0,0.06,0.012,0.116,0.032,0.169c0,0.002,0,0.004,0.001,0.006c0.001,0.003,0.002,0.006,0.003,0.009
			C8.847,5.178,8.848,5.182,8.85,5.186c0.404,0.909,0.013,1.841-0.428,2.893C7.956,9.188,7.44,10.417,7.959,11.67
			C7.965,11.685,7.97,11.698,7.977,11.712z"/>
		<path id="path4610" inkscape:connector-curvature="0" fill="#FFFFFF" fill-opacity="0.5474" d="M20.154,11.566
			c0.004,0.005,0.007,0.012,0.008,0.018h0.002c0.085,0.16,0.25,0.271,0.444,0.271c0.276,0,0.504-0.226,0.504-0.503
			c0-0.043-0.008-0.085-0.018-0.125c0.002-0.007,0.002-0.013-0.002-0.02c-0.372-0.882-0.018-1.85,0.42-2.892
			c0.473-1.126,0.98-2.376,0.423-3.647c-0.073-0.184-0.249-0.313-0.458-0.313c-0.27,0-0.49,0.22-0.49,0.49
			c0,0.06,0.014,0.116,0.033,0.169c0,0.002,0,0.004,0,0.006c0.002,0.003,0.002,0.006,0.004,0.009
			c0.002,0.004,0.004,0.008,0.004,0.012c0.404,0.909,0.014,1.841-0.428,2.893c-0.465,1.109-0.98,2.339-0.461,3.591
			C20.143,11.539,20.148,11.553,20.154,11.566z"/>
		<path id="path4612" inkscape:connector-curvature="0" fill="#FFFFFF" fill-opacity="0.5474" d="M15.019,7.212
			c0.003,0.005,0.005,0.012,0.008,0.018c0,0,0.001,0,0.002,0c0.084,0.16,0.25,0.271,0.444,0.271c0.276,0,0.502-0.226,0.502-0.503
			c0-0.043-0.007-0.085-0.018-0.125c0.002-0.007,0.002-0.013,0-0.02c-0.375-0.882-0.019-1.85,0.419-2.893
			c0.473-1.126,0.98-2.376,0.422-3.647C16.725,0.13,16.549,0,16.34,0c-0.27,0-0.49,0.22-0.49,0.49c0,0.06,0.011,0.116,0.032,0.169
			c0,0.002,0,0.004,0.001,0.006c0.001,0.003,0.002,0.006,0.003,0.009c0.001,0.004,0.003,0.008,0.003,0.012
			c0.404,0.909,0.014,1.841-0.427,2.893C14.996,4.688,14.48,5.918,15,7.171C15.007,7.185,15.012,7.198,15.019,7.212z"/>
	</g>
	<g id="like" transform="matrix(1.6313453,0,0,1.6313453,1390.1324,449.99483)">
		<path id="path4627" inkscape:connector-curvature="0" fill="#FFFFFF" fill-opacity="0.5474" d="M29.164,10.472
			c-1.25-0.328-4.189-0.324-8.488-0.438c0.203-0.937,0.25-1.784,0.25-3.286C20.926,3.16,18.312,0,16,0c-1.632,0-2.979,1.335-3,2.977
			c-0.022,2.014-0.645,5.492-4,7.256c-0.246,0.13-0.95,0.477-1.053,0.522L8,10.8C7.475,10.347,6.747,10,6,10H3c-1.654,0-3,1.346-3,3
			v16c0,1.654,1.346,3,3,3h3c1.19,0,2.186-0.719,2.667-1.727c0.012,0.004,0.034,0.01,0.047,0.012
			c0.066,0.018,0.144,0.037,0.239,0.062C8.972,30.352,8.981,30.354,9,30.359c0.576,0.143,1.685,0.408,4.055,0.953
			C13.563,31.428,16.247,32,19.027,32h5.467c1.666,0,2.867-0.641,3.582-1.928c0.01-0.02,0.24-0.469,0.427-1.076
			c0.141-0.457,0.193-1.104,0.023-1.76c1.074-0.738,1.42-1.854,1.645-2.58c0.377-1.191,0.264-2.086,0.002-2.727
			c0.604-0.57,1.119-1.439,1.336-2.766c0.135-0.822-0.01-1.668-0.389-2.372c0.566-0.636,0.824-1.436,0.854-2.176l0.012-0.209
			c0.007-0.131,0.013-0.212,0.013-0.5C32,12.643,31.125,11.032,29.164,10.472z M7,29c0,0.553-0.447,1-1,1H3c-0.553,0-1-0.447-1-1V13
			c0-0.553,0.447-1,1-1h3c0.553,0,1,0.447,1,1V29z M29.977,14.535C29.957,15.029,29.75,16,28,16C26.5,16,26,16,26,16
			c-0.277,0-0.5,0.224-0.5,0.5c0,0.276,0.223,0.5,0.5,0.5c0,0,0.438,0,1.938,0c1.5,0,1.697,1.244,1.6,1.844
			C29.414,19.59,29.064,21,27.375,21C25.688,21,25,21,25,21c-0.277,0-0.5,0.223-0.5,0.5c0,0.275,0.223,0.5,0.5,0.5
			c0,0,1.188,0,1.969,0c1.688,0,1.539,1.287,1.297,2.055C27.947,25.064,27.752,26,25.625,26c-0.719,0-1.631,0-1.631,0
			c-0.277,0-0.5,0.223-0.5,0.5c0,0.275,0.223,0.5,0.5,0.5c0,0,0.693,0,1.568,0c1.094,0,1.145,1.035,1.031,1.406
			c-0.125,0.406-0.273,0.707-0.279,0.721C26.012,29.672,25.525,30,24.494,30h-5.467c-2.746,0-5.47-0.623-5.54-0.639
			c-4.154-0.957-4.373-1.031-4.634-1.105c0,0-0.846-0.143-0.846-0.881L8,13.563c0-0.469,0.299-0.893,0.794-1.042
			C8.856,12.497,8.94,12.471,9,12.446c4.568-1.892,5.959-6.04,6-9.446c0.006-0.479,0.375-1,1-1c1.057,0,2.926,2.122,2.926,4.748
			C18.926,9.119,18.83,9.529,18,12c9.999,0,9.93,0.144,10.812,0.375C29.906,12.688,30,13.594,30,13.906
			C30,14.249,29.99,14.199,29.977,14.535z"/>
		<path id="path4629" inkscape:connector-curvature="0" fill="#FFFFFF" fill-opacity="0.5474" d="M4.5,26C3.672,26,3,26.672,3,27.5
			C3,28.328,3.672,29,4.5,29C5.328,29,6,28.328,6,27.5C6,26.672,5.328,26,4.5,26z M4.5,28C4.225,28,4,27.775,4,27.5
			C4,27.225,4.225,27,4.5,27C4.775,27,5,27.225,5,27.5C5,27.775,4.775,28,4.5,28z"/>
	</g>
	<g id="monitor" transform="matrix(7.6063247,2.1810785,-2.1810785,7.6063247,30.340261,284.87564)">
		<path id="path4642" inkscape:connector-curvature="0" fill="#FFFFFF" fill-opacity="0.5474" d="M27,4.996L5,5
			C4.447,5,4,5.443,4,5.996l0,14c0,0.553,0.447,1,1,1l22,0c0.553,0,1-0.447,1-1l0-14C28,5.443,27.553,4.996,27,4.996z M27,20L5,20
			L5,5.996l22,0L27,20z"/>
		<path id="path4644" inkscape:connector-curvature="0" fill="#FFFFFF" fill-opacity="0.5474" d="M29,1L3,1C1.343,1,0,2.342,0,4
			l0,20c0,1.654,1.338,2.994,2.99,2.998l10.01,0l0,1.217l-6.242,0.811C6.312,29.137,6,29.537,6,29.996c0,0.553,0.447,1,1,1l18,0
			c0.553,0,1-0.447,1-1c0-0.459-0.312-0.859-0.758-0.971L19,28.215l0-1.217l10.01,0C30.662,26.994,32,25.654,32,24l0-20
			C32,2.342,30.656,1,29,1z M30,24c0,0.551-0.449,1-1,1l-9,0l-8,0l-9,0c-0.552,0-1-0.449-1-1L2,4c0-0.552,0.448-1,1-1l26,0
			c0.551,0,1,0.448,1,1L30,24z"/>
	</g>
	<path id="mail" inkscape:connector-curvature="0" fill="#FFFFFF" fill-opacity="0.5474" d="M298.935,216.001l-55.146-24.553
		c-5.076-2.26-11.024,0.025-13.283,5.099l-13.3,29.871c-2.26,5.076,0.023,11.023,5.099,13.283l55.146,24.553
		c5.076,2.26,11.023-0.023,13.283-5.099l13.3-29.871C306.293,224.211,304.01,218.261,298.935,216.001z M233.822,201.466
		l10.711,19.223l-21.453,4.903L233.822,201.466L233.822,201.466z M286.139,257.109c-1.13,2.537-4.109,3.677-6.642,2.55
		l-55.147-24.553c-2.534-1.128-3.679-4.105-2.549-6.642l24.006-5.487l6.684,11.999c0.818,1.459,2.065,2.571,3.522,3.22
		c1.455,0.648,3.115,0.833,4.748,0.462l13.392-3.06L286.139,257.109L286.139,257.109z M287.417,254.237l-10.713-19.225l21.456-4.902
		L287.417,254.237L287.417,254.237z M260.201,236.205c-1.07,0.245-2.163,0.139-3.165-0.307c-1.002-0.446-1.813-1.19-2.348-2.147
		l-6.328-11.358l-1.275-2.288l-11.987-21.51l0.001-0.003c1.128-2.535,4.107-3.678,6.642-2.55l55.147,24.553
		c2.532,1.127,3.678,4.107,2.549,6.642L260.201,236.205L260.201,236.205z"/>
</g>
</svg>
